<svg width="17" height="18" viewBox="0 0 17 18" fill="none" xmlns="http://www.w3.org/2000/svg">
<path d="M16.0591 12.602V14.8601C16.06 15.0697 16.0169 15.2772 15.9328 15.4693C15.8486 15.6613 15.7252 15.8338 15.5704 15.9755C15.4157 16.1172 15.2329 16.2251 15.034 16.2922C14.835 16.3594 14.6242 16.3843 14.415 16.3655C12.0942 16.1138 9.86489 15.3223 7.90625 14.0547C6.08398 12.899 4.53902 11.3571 3.38107 9.53847C2.10647 7.57482 1.31325 5.33914 1.06569 3.01254C1.04684 2.8044 1.07163 2.59461 1.13847 2.39655C1.20531 2.19849 1.31274 2.01649 1.45393 1.86213C1.59511 1.70778 1.76695 1.58445 1.9585 1.50001C2.15006 1.41556 2.35713 1.37185 2.56654 1.37166H4.82913C5.19515 1.36806 5.54998 1.49742 5.8275 1.73561C6.10503 1.97381 6.28629 2.30459 6.33752 2.6663C6.43302 3.38895 6.61013 4.09849 6.86546 4.78139C6.96693 5.0508 6.98889 5.3436 6.92874 5.62508C6.86859 5.90657 6.72885 6.16494 6.52607 6.36959L5.56824 7.32552C6.64188 9.20995 8.20525 10.7702 10.0934 11.8417L11.0512 10.8858C11.2563 10.6834 11.5152 10.544 11.7972 10.4839C12.0793 10.4239 12.3727 10.4458 12.6426 10.5471C13.3269 10.8019 14.0378 10.9787 14.7619 11.074C15.1283 11.1256 15.4628 11.3097 15.702 11.5915C15.9412 11.8732 16.0683 12.2328 16.0591 12.602Z" stroke="white" stroke-width="1.5" stroke-linecap="round" stroke-linejoin="round"/>
</svg>
