<svg width="24" height="24" viewBox="0 0 24 24" fill="none" xmlns="http://www.w3.org/2000/svg">
<path d="M20 9H3.99997C2.8954 9 1.99997 9.76751 1.99997 10.7143V19.2857C1.99997 20.2325 2.8954 21 3.99997 21H20C21.1045 21 22 20.2325 22 19.2857V10.7143C22 9.76751 21.1045 9 20 9Z" stroke="black" stroke-width="2" stroke-linecap="round" stroke-linejoin="round"/>
<path d="M16 9V2.77778C16 2.5715 15.7893 2.37367 15.4142 2.22781C15.0391 2.08194 14.5304 2 14 2H9.99997C9.46954 2 8.96083 2.08194 8.58576 2.22781C8.21068 2.37367 7.99997 2.5715 7.99997 2.77778V9" stroke="black" stroke-width="2" stroke-linecap="round" stroke-linejoin="round"/>
</svg>
