<svg width="23" height="10" viewBox="0 0 23 10" fill="none" xmlns="http://www.w3.org/2000/svg">
<path d="M1.84957 9.53158C1.4429 9.53158 1.11624 9.46825 0.86957 9.34158C0.622904 9.21492 0.49957 9.00825 0.49957 8.72158C0.49957 8.60825 0.536237 8.48825 0.60957 8.36158C0.68957 8.23492 0.77957 8.13825 0.87957 8.07158C1.0729 8.32492 1.2829 8.48825 1.50957 8.56158C1.7429 8.63492 2.01957 8.67158 2.33957 8.67158C2.68624 8.67158 2.98957 8.56825 3.24957 8.36158C3.50957 8.15492 3.72957 7.88825 3.90957 7.56158C4.09624 7.22825 4.24624 6.87158 4.35957 6.49158C4.47957 6.11158 4.56624 5.74492 4.61957 5.39158C4.6729 5.03825 4.69957 4.73825 4.69957 4.49158C4.69957 3.41158 4.58624 2.60492 4.35957 2.07158C4.1329 1.53825 3.7329 1.27158 3.15957 1.27158C2.80624 1.27158 2.50624 1.37491 2.25957 1.58158C2.0129 1.78158 1.82624 2.03492 1.69957 2.34158C1.57957 2.64825 1.51957 2.96492 1.51957 3.29158C1.51957 3.71158 1.57957 4.05158 1.69957 4.31158C1.82624 4.56492 1.9929 4.74825 2.19957 4.86158C2.40624 4.97492 2.63957 5.03158 2.89957 5.03158C3.11957 5.03158 3.31624 5.00492 3.48957 4.95158C3.6629 4.89825 3.80624 4.84492 3.91957 4.79158C4.0329 4.73825 4.1029 4.71158 4.12957 4.71158C4.1629 4.71158 4.1929 4.72492 4.21957 4.75158C4.2529 4.77158 4.26957 4.81158 4.26957 4.87158C4.26957 5.05158 4.22957 5.22158 4.14957 5.38158C3.63624 5.60825 3.12624 5.72158 2.61957 5.72158C2.20624 5.72158 1.82624 5.63825 1.47957 5.47158C1.1329 5.30492 0.856237 5.05492 0.64957 4.72158C0.442904 4.38825 0.33957 3.96825 0.33957 3.46158C0.33957 3.18158 0.392904 2.87492 0.49957 2.54158C0.606237 2.20158 0.776237 1.87825 1.00957 1.57158C1.2429 1.25825 1.54957 1.00158 1.92957 0.801582C2.30957 0.601582 2.7729 0.501582 3.31957 0.501582C3.8529 0.501582 4.3029 0.658248 4.66957 0.971582C5.03624 1.28491 5.3129 1.70825 5.49957 2.24158C5.68624 2.76825 5.77957 3.36492 5.77957 4.03158C5.77957 4.53158 5.7229 5.04158 5.60957 5.56158C5.5029 6.07492 5.3429 6.56825 5.12957 7.04158C4.91624 7.51492 4.64957 7.93825 4.32957 8.31158C4.01624 8.68492 3.6529 8.98158 3.23957 9.20158C2.82624 9.42158 2.3629 9.53158 1.84957 9.53158ZM8.3923 4.35158C8.16564 4.35158 8.00564 4.30825 7.9123 4.22158C7.81897 4.12825 7.7723 3.98825 7.7723 3.80158C7.7723 3.72158 7.77897 3.62825 7.7923 3.52158C7.80564 3.40825 7.82564 3.28491 7.8523 3.15158C8.1323 2.97158 8.39897 2.88158 8.6523 2.88158C8.82564 2.88158 8.97897 2.92158 9.1123 3.00158C9.24564 3.07491 9.3123 3.20158 9.3123 3.38158C9.3123 3.46825 9.3023 3.57158 9.2823 3.69158C9.2623 3.80492 9.22897 3.93158 9.1823 4.07158C8.88897 4.25825 8.62564 4.35158 8.3923 4.35158ZM8.1423 9.51158C7.91564 9.51158 7.75564 9.46492 7.6623 9.37158C7.56897 9.28492 7.5223 9.14825 7.5223 8.96158C7.5223 8.88158 7.52897 8.78825 7.5423 8.68158C7.55564 8.56825 7.57564 8.44492 7.6023 8.31158C7.8823 8.13158 8.14897 8.04158 8.4023 8.04158C8.57564 8.04158 8.72897 8.08158 8.8623 8.16158C8.99564 8.23492 9.0623 8.36158 9.0623 8.54158C9.0623 8.62825 9.0523 8.73158 9.0323 8.85158C9.0123 8.96492 8.97897 9.09158 8.9323 9.23158C8.63897 9.41825 8.37564 9.51158 8.1423 9.51158ZM14.0915 9.43158C13.8582 9.43158 13.6715 9.36158 13.5315 9.22158C13.3982 9.07492 13.3315 8.81492 13.3315 8.44158C13.3315 8.28158 13.3415 8.11825 13.3615 7.95158C13.3815 7.78492 13.4049 7.61825 13.4315 7.45158C13.1449 7.43158 12.8515 7.42158 12.5515 7.42158C12.1582 7.42158 11.7715 7.43825 11.3915 7.47158C11.0182 7.50492 10.6849 7.55825 10.3915 7.63158C10.2782 7.74492 10.1615 7.80158 10.0415 7.80158C9.79486 7.80158 9.61152 7.67825 9.49152 7.43158C9.74486 7.15158 10.0115 6.82492 10.2915 6.45158C10.5715 6.07158 10.8415 5.66492 11.1015 5.23158C11.3682 4.79158 11.6049 4.34492 11.8115 3.89158C12.0249 3.43158 12.1949 2.98158 12.3215 2.54158C12.4482 2.09491 12.5115 1.67825 12.5115 1.29158C12.5115 1.13158 12.4815 0.988249 12.4215 0.861582C12.5949 0.714915 12.7515 0.618248 12.8915 0.571581C13.0382 0.524915 13.1549 0.501582 13.2415 0.501582C13.3882 0.501582 13.5049 0.544915 13.5915 0.631582C13.6782 0.718248 13.7215 0.898248 13.7215 1.17158C13.7215 1.49158 13.6482 1.88158 13.5015 2.34158C13.3549 2.79492 13.1515 3.28825 12.8915 3.82158C12.6382 4.34825 12.3449 4.88158 12.0115 5.42158C11.6849 5.96158 11.3349 6.47158 10.9615 6.95158C11.4215 6.83158 11.8882 6.74158 12.3615 6.68158C12.8349 6.62158 13.2482 6.58825 13.6015 6.58158C13.6349 6.44158 13.6582 6.30825 13.6715 6.18158C13.6915 6.05492 13.7015 5.94492 13.7015 5.85158C13.7015 5.70492 13.6915 5.56492 13.6715 5.43158C13.6515 5.29825 13.6049 5.16825 13.5315 5.04158C13.6049 4.98825 13.7082 4.94492 13.8415 4.91158C13.9815 4.87158 14.1015 4.85158 14.2015 4.85158C14.4015 4.85158 14.5549 4.90825 14.6615 5.02158C14.7682 5.12825 14.8215 5.31825 14.8215 5.59158C14.8215 5.71825 14.8049 5.87825 14.7715 6.07158C14.7449 6.26492 14.7115 6.47158 14.6715 6.69158C14.8649 6.74492 15.0182 6.83158 15.1315 6.95158C15.2449 7.06492 15.3015 7.22492 15.3015 7.43158C15.3015 7.48492 15.2982 7.54158 15.2915 7.60158C15.2915 7.66158 15.2882 7.72158 15.2815 7.78158C15.1949 7.74158 15.0849 7.70492 14.9515 7.67158C14.8182 7.63158 14.6749 7.59825 14.5215 7.57158C14.5015 7.70492 14.4849 7.83492 14.4715 7.96158C14.4582 8.08158 14.4515 8.18825 14.4515 8.28158C14.4515 8.44825 14.4749 8.59825 14.5215 8.73158C14.5749 8.86492 14.6715 8.99825 14.8115 9.13158C14.6849 9.25158 14.5549 9.33158 14.4215 9.37158C14.2882 9.41158 14.1782 9.43158 14.0915 9.43158ZM18.8888 9.53158C18.3421 9.53158 17.8821 9.36825 17.5088 9.04158C17.1355 8.71492 16.8521 8.27492 16.6588 7.72158C16.4655 7.16825 16.3688 6.55158 16.3688 5.87158C16.3688 5.37825 16.4155 4.87825 16.5088 4.37158C16.6021 3.86492 16.7421 3.38158 16.9288 2.92158C17.1155 2.45492 17.3488 2.04158 17.6288 1.68158C17.9155 1.31491 18.2488 1.02825 18.6288 0.821582C19.0088 0.608248 19.4388 0.501582 19.9188 0.501582C20.4655 0.501582 20.9255 0.668248 21.2988 1.00158C21.6721 1.33491 21.9555 1.78158 22.1488 2.34158C22.3421 2.89492 22.4388 3.51492 22.4388 4.20158C22.4388 4.69492 22.3921 5.19492 22.2988 5.70158C22.2055 6.20158 22.0655 6.68158 21.8788 7.14158C21.6921 7.59492 21.4555 8.00158 21.1688 8.36158C20.8888 8.72158 20.5588 9.00825 20.1788 9.22158C19.7988 9.42825 19.3688 9.53158 18.8888 9.53158ZM19.3088 8.76158C19.6355 8.76158 19.9155 8.65492 20.1488 8.44158C20.3888 8.22825 20.5855 7.95492 20.7388 7.62158C20.8988 7.28158 21.0255 6.91825 21.1188 6.53158C21.2121 6.14492 21.2788 5.77158 21.3188 5.41158C21.3588 5.05158 21.3788 4.74825 21.3788 4.50158C21.3788 3.43492 21.2121 2.63158 20.8788 2.09158C20.5521 1.54491 20.0888 1.27158 19.4888 1.27158C19.1688 1.27158 18.8921 1.37491 18.6588 1.58158C18.4321 1.78825 18.2388 2.05825 18.0788 2.39158C17.9188 2.71825 17.7921 3.07491 17.6988 3.46158C17.6055 3.84158 17.5355 4.21158 17.4888 4.57158C17.4488 4.93158 17.4288 5.23825 17.4288 5.49158C17.4288 6.58492 17.5921 7.40492 17.9188 7.95158C18.2521 8.49158 18.7155 8.76158 19.3088 8.76158Z" fill="white"/>
</svg>
