<svg width="27" height="22" viewBox="0 0 27 22" fill="none" xmlns="http://www.w3.org/2000/svg">
<path d="M26 1.0111C24.9118 1.75683 23.7069 2.32719 22.4318 2.70022C21.7474 1.93571 20.8379 1.39385 19.8262 1.14792C18.8145 0.901983 17.7494 0.963845 16.7751 1.32514C15.8008 1.68643 14.9641 2.32972 14.3784 3.168C13.7926 4.00629 13.486 4.99912 13.5 6.01222V7.11622C11.503 7.16652 9.52418 6.73624 7.73978 5.86367C5.95539 4.99111 4.42081 3.70335 3.27273 2.1151C3.27273 2.1151 -1.27273 12.0511 8.95455 16.4671C6.61424 18.0104 3.82631 18.7843 1 18.6751C11.2273 24.1951 23.7273 18.6751 23.7273 5.9791C23.7262 5.67158 23.6958 5.36483 23.6364 5.06278C24.7961 3.9516 25.6146 2.54866 26 1.0111V1.0111Z" stroke="white" stroke-width="2" stroke-linecap="round" stroke-linejoin="round"/>
</svg>
